<svg xmlns="http://www.w3.org/2000/svg" width="316.22776601683796" height="316.22776601683796" viewBox="0 0 1133.8586 1133.8586">
<path id="path1" d="m 0,0 h -8.999 v -117.126 c 0,-5.835 -4.73,-10.565 -10.565,-10.565 h -108.704 c -2.906,0 -5.283,-2.377 -5.283,-5.283 v -423.431 c 0,-5.835 -4.73,-10.565 -10.565,-10.565 l -116.938,0.002 c -2.353,0 -3.532,-2.845 -1.868,-4.509 l 100.137,-100.137 c 3.962,-3.962 9.337,-6.188 14.94,-6.188 h 120.811 c 5.835,0 10.565,4.73 10.565,10.565 v 244.826 c 0,2.917 2.365,5.282 5.282,5.282 H 0 c 114.52,0 225.72,69.855 225.72,209.364 C 225.72,-83.542 140.104,0 0,0 m -272.713,-127.691 h -118.513 c 0.977,-4.128 2.744,-7.195 5.499,-9.956 31.29,-31.287 80.257,-80.245 113.797,-113.786 1.664,-1.664 4.499,-0.476 4.499,1.877 v 116.582 c 0,2.918 -2.365,5.283 -5.282,5.283" style="fill:#000;fill-rule:nonzero;stroke:none" transform="matrix(1.3333333,0,0,-1.3333333,677.26667,115.06147)"/>
</svg>